<?xml version="1.0" encoding="UTF-8" standalone="no"?>
<!DOCTYPE svg PUBLIC "-//W3C//DTD SVG 1.1//EN"
 "http://www.w3.org/Graphics/SVG/1.1/DTD/svg11.dtd">
<!-- Generated by graphviz version 2.38.0 (20140413.2041)
 -->
<!-- Title: pastafarianism Pages: 1 -->
<svg width="207pt" height="280pt"
 viewBox="0.00 0.00 206.84 280.00" xmlns="http://www.w3.org/2000/svg" xmlns:xlink="http://www.w3.org/1999/xlink">
<g id="graph0" class="graph" transform="scale(1 1) rotate(0) translate(4 276)">
<title>pastafarianism</title>
<polygon fill="white" stroke="none" points="-4,4 -4,-276 202.837,-276 202.837,4 -4,4"/>
<!-- parallel -->
<g id="node1" class="node"><title>parallel</title>
<polygon fill="gold" stroke="black" points="162.498,-272 91.4526,-272 73.1763,-216 144.222,-216 162.498,-272"/>
<text text-anchor="middle" x="117.837" y="-246.8" font-family="Times New Roman,serif" font-size="9.00">parallel</text>
<text text-anchor="middle" x="117.837" y="-236.8" font-family="Times New Roman,serif" font-size="9.00">type</text>
</g>
<!-- selector -->
<g id="node2" class="node"><title>selector</title>
<polygon fill="cyan" stroke="black" points="109.33,-154.544 109.33,-169.456 93.2251,-180 70.4492,-180 54.3443,-169.456 54.3443,-154.544 70.4492,-144 93.2251,-144 109.33,-154.544"/>
<text text-anchor="middle" x="81.8372" y="-159.8" font-family="Times New Roman,serif" font-size="9.00">selector</text>
</g>
<!-- parallel&#45;&gt;selector -->
<g id="edge1" class="edge"><title>parallel&#45;&gt;selector</title>
<path fill="none" stroke="black" d="M105.649,-215.916C101.837,-207.445 97.6358,-198.108 93.837,-189.666"/>
<polygon fill="black" stroke="black" points="96.9053,-187.956 89.6098,-180.273 90.5218,-190.828 96.9053,-187.956"/>
</g>
<!-- scanning -->
<g id="node7" class="node"><title>scanning</title>
<ellipse fill="gray" stroke="black" cx="154.837" cy="-162" rx="27.2716" ry="18"/>
<text text-anchor="middle" x="154.837" y="-159.8" font-family="Times New Roman,serif" font-size="9.00">scanning</text>
</g>
<!-- parallel&#45;&gt;scanning -->
<g id="edge6" class="edge"><title>parallel&#45;&gt;scanning</title>
<path fill="none" stroke="black" d="M130.364,-215.916C134.446,-207.089 138.963,-197.323 142.993,-188.608"/>
<polygon fill="black" stroke="black" points="146.267,-189.867 147.288,-179.322 139.914,-186.929 146.267,-189.867"/>
</g>
<!-- move_forward -->
<g id="node3" class="node"><title>move_forward</title>
<ellipse fill="gray" stroke="black" cx="39.8372" cy="-90" rx="39.675" ry="18"/>
<text text-anchor="middle" x="39.8372" y="-87.8" font-family="Times New Roman,serif" font-size="9.00">move_forward</text>
</g>
<!-- selector&#45;&gt;move_forward -->
<g id="edge2" class="edge"><title>selector&#45;&gt;move_forward</title>
<path fill="none" stroke="black" d="M71.4551,-143.697C66.4996,-135.437 60.4736,-125.394 55.0168,-116.299"/>
<polygon fill="black" stroke="black" points="57.9568,-114.396 49.8105,-107.622 51.9543,-117.998 57.9568,-114.396"/>
</g>
<!-- sequence -->
<g id="node4" class="node"><title>sequence</title>
<polygon fill="orange" stroke="black" points="151.837,-108 97.8372,-108 97.8372,-72 151.837,-72 151.837,-108"/>
<text text-anchor="middle" x="124.837" y="-87.8" font-family="Times New Roman,serif" font-size="9.00">sequence</text>
</g>
<!-- selector&#45;&gt;sequence -->
<g id="edge3" class="edge"><title>selector&#45;&gt;sequence</title>
<path fill="none" stroke="black" d="M92.4664,-143.697C97.4653,-135.559 103.528,-125.689 109.049,-116.701"/>
<polygon fill="black" stroke="black" points="112.078,-118.457 114.33,-108.104 106.114,-114.793 112.078,-118.457"/>
</g>
<!-- obstacle_detection -->
<g id="node5" class="node"><title>obstacle_detection</title>
<ellipse fill="gray" stroke="black" cx="78.8372" cy="-18" rx="47.8403" ry="18"/>
<text text-anchor="middle" x="78.8372" y="-15.8" font-family="Times New Roman,serif" font-size="9.00">obstacle_detection</text>
</g>
<!-- sequence&#45;&gt;obstacle_detection -->
<g id="edge4" class="edge"><title>sequence&#45;&gt;obstacle_detection</title>
<path fill="none" stroke="black" d="M113.466,-71.6966C107.982,-63.3514 101.301,-53.1846 95.276,-44.0155"/>
<polygon fill="black" stroke="black" points="98.1772,-42.0572 89.7604,-35.6223 92.3272,-45.9015 98.1772,-42.0572"/>
</g>
<!-- bypass -->
<g id="node6" class="node"><title>bypass</title>
<ellipse fill="gray" stroke="black" cx="171.837" cy="-18" rx="27" ry="18"/>
<text text-anchor="middle" x="171.837" y="-15.8" font-family="Times New Roman,serif" font-size="9.00">bypass</text>
</g>
<!-- sequence&#45;&gt;bypass -->
<g id="edge5" class="edge"><title>sequence&#45;&gt;bypass</title>
<path fill="none" stroke="black" d="M136.455,-71.6966C142.223,-63.1059 149.287,-52.585 155.582,-43.2092"/>
<polygon fill="black" stroke="black" points="158.646,-44.9245 161.315,-34.6712 152.835,-41.0224 158.646,-44.9245"/>
</g>
</g>
</svg>
