<?xml version="1.0" encoding="UTF-8" standalone="no"?>
<!DOCTYPE svg PUBLIC "-//W3C//DTD SVG 1.1//EN"
 "http://www.w3.org/Graphics/SVG/1.1/DTD/svg11.dtd">
<!-- Generated by graphviz version 2.38.0 (20140413.2041)
 -->
<!-- Title: pastafarianism Pages: 1 -->
<svg width="277pt" height="116pt"
 viewBox="0.00 0.00 277.10 116.00" xmlns="http://www.w3.org/2000/svg" xmlns:xlink="http://www.w3.org/1999/xlink">
<g id="graph0" class="graph" transform="scale(1 1) rotate(0) translate(4 112)">
<title>pastafarianism</title>
<polygon fill="white" stroke="none" points="-4,4 -4,-112 273.097,-112 273.097,4 -4,4"/>
<!-- sequence -->
<g id="node1" class="node"><title>sequence</title>
<polygon fill="orange" stroke="black" points="159.682,-108 105.682,-108 105.682,-72 159.682,-72 159.682,-108"/>
<text text-anchor="middle" x="132.682" y="-87.8" font-family="Times New Roman,serif" font-size="9.00">sequence</text>
</g>
<!-- package_type -->
<g id="node2" class="node"><title>package_type</title>
<ellipse fill="gray" stroke="black" cx="38.6825" cy="-18" rx="38.8658" ry="18"/>
<text text-anchor="middle" x="38.6825" y="-15.8" font-family="Times New Roman,serif" font-size="9.00">package_type</text>
</g>
<!-- sequence&#45;&gt;package_type -->
<g id="edge1" class="edge"><title>sequence&#45;&gt;package_type</title>
<path fill="none" stroke="black" d="M109.447,-71.6966C96.4799,-62.0406 80.2385,-49.946 66.5869,-39.7799"/>
<polygon fill="black" stroke="black" points="68.5848,-36.9039 58.4739,-33.7383 64.4039,-42.5182 68.5848,-36.9039"/>
</g>
<!-- grab_package -->
<g id="node3" class="node"><title>grab_package</title>
<ellipse fill="gray" stroke="black" cx="132.682" cy="-18" rx="37.5556" ry="18"/>
<text text-anchor="middle" x="132.682" y="-15.8" font-family="Times New Roman,serif" font-size="9.00">grab_package</text>
</g>
<!-- sequence&#45;&gt;grab_package -->
<g id="edge2" class="edge"><title>sequence&#45;&gt;grab_package</title>
<path fill="none" stroke="black" d="M132.682,-71.6966C132.682,-63.9827 132.682,-54.7125 132.682,-46.1124"/>
<polygon fill="black" stroke="black" points="136.183,-46.1043 132.682,-36.1043 129.183,-46.1044 136.183,-46.1043"/>
</g>
<!-- target_location -->
<g id="node4" class="node"><title>target_location</title>
<ellipse fill="gray" stroke="black" cx="228.682" cy="-18" rx="40.3292" ry="18"/>
<text text-anchor="middle" x="228.682" y="-15.8" font-family="Times New Roman,serif" font-size="9.00">target_location</text>
</g>
<!-- sequence&#45;&gt;target_location -->
<g id="edge3" class="edge"><title>sequence&#45;&gt;target_location</title>
<path fill="none" stroke="black" d="M156.413,-71.6966C169.655,-62.0406 186.242,-49.946 200.184,-39.7799"/>
<polygon fill="black" stroke="black" points="202.452,-42.4581 208.47,-33.7383 198.328,-36.802 202.452,-42.4581"/>
</g>
</g>
</svg>
