<?xml version="1.0" encoding="UTF-8" standalone="no"?>
<!DOCTYPE svg PUBLIC "-//W3C//DTD SVG 1.1//EN"
 "http://www.w3.org/Graphics/SVG/1.1/DTD/svg11.dtd">
<!-- Generated by graphviz version 2.38.0 (20140413.2041)
 -->
<!-- Title: pastafarianism Pages: 1 -->
<svg width="359pt" height="116pt"
 viewBox="0.00 0.00 358.50 116.00" xmlns="http://www.w3.org/2000/svg" xmlns:xlink="http://www.w3.org/1999/xlink">
<g id="graph0" class="graph" transform="scale(1 1) rotate(0) translate(4 112)">
<title>pastafarianism</title>
<polygon fill="white" stroke="none" points="-4,4 -4,-112 354.5,-112 354.5,4 -4,4"/>
<!-- sequence -->
<g id="node1" class="node"><title>sequence</title>
<polygon fill="orange" stroke="black" points="214.312,-108 160.312,-108 160.312,-72 214.312,-72 214.312,-108"/>
<text text-anchor="middle" x="187.312" y="-87.8" font-family="Times New Roman,serif" font-size="9.00">sequence</text>
</g>
<!-- cleaning_tool_detection -->
<g id="node2" class="node"><title>cleaning_tool_detection</title>
<ellipse fill="gray" stroke="black" cx="58.3124" cy="-18" rx="58.1254" ry="18"/>
<text text-anchor="middle" x="58.3124" y="-15.8" font-family="Times New Roman,serif" font-size="9.00">cleaning_tool_detection</text>
</g>
<!-- sequence&#45;&gt;cleaning_tool_detection -->
<g id="edge1" class="edge"><title>sequence&#45;&gt;cleaning_tool_detection</title>
<path fill="none" stroke="black" d="M160.27,-74.3257C141.22,-63.9887 115.499,-50.0317 94.6581,-38.7225"/>
<polygon fill="black" stroke="black" points="96.2224,-35.5893 85.7637,-33.8961 92.8837,-41.7418 96.2224,-35.5893"/>
</g>
<!-- clean_area_detection -->
<g id="node3" class="node"><title>clean_area_detection</title>
<ellipse fill="gray" stroke="black" cx="187.312" cy="-18" rx="52.5778" ry="18"/>
<text text-anchor="middle" x="187.312" y="-15.8" font-family="Times New Roman,serif" font-size="9.00">clean_area_detection</text>
</g>
<!-- sequence&#45;&gt;clean_area_detection -->
<g id="edge2" class="edge"><title>sequence&#45;&gt;clean_area_detection</title>
<path fill="none" stroke="black" d="M187.312,-71.6966C187.312,-63.9827 187.312,-54.7125 187.312,-46.1124"/>
<polygon fill="black" stroke="black" points="190.812,-46.1043 187.312,-36.1043 183.812,-46.1044 190.812,-46.1043"/>
</g>
<!-- check_cleanliness -->
<g id="node4" class="node"><title>check_cleanliness</title>
<ellipse fill="gray" stroke="black" cx="304.312" cy="-18" rx="46.3768" ry="18"/>
<text text-anchor="middle" x="304.312" y="-15.8" font-family="Times New Roman,serif" font-size="9.00">check_cleanliness</text>
</g>
<!-- sequence&#45;&gt;check_cleanliness -->
<g id="edge3" class="edge"><title>sequence&#45;&gt;check_cleanliness</title>
<path fill="none" stroke="black" d="M214.449,-72.7646C231.349,-62.6531 253.209,-49.5749 271.136,-38.8491"/>
<polygon fill="black" stroke="black" points="273.321,-41.6205 280.105,-33.4828 269.727,-35.6135 273.321,-41.6205"/>
</g>
</g>
</svg>
