<?xml version="1.0" encoding="UTF-8" standalone="no"?>
<!DOCTYPE svg PUBLIC "-//W3C//DTD SVG 1.1//EN"
 "http://www.w3.org/Graphics/SVG/1.1/DTD/svg11.dtd">
<!-- Generated by graphviz version 2.38.0 (20140413.2041)
 -->
<!-- Title: pastafarianism Pages: 1 -->
<svg width="158pt" height="116pt"
 viewBox="0.00 0.00 158.26 116.00" xmlns="http://www.w3.org/2000/svg" xmlns:xlink="http://www.w3.org/1999/xlink">
<g id="graph0" class="graph" transform="scale(1 1) rotate(0) translate(4 112)">
<title>pastafarianism</title>
<polygon fill="white" stroke="none" points="-4,4 -4,-112 154.26,-112 154.26,4 -4,4"/>
<!-- selector -->
<g id="node1" class="node"><title>selector</title>
<polygon fill="cyan" stroke="black" points="108.753,-82.5442 108.753,-97.4558 92.6478,-108 69.8719,-108 53.7669,-97.4558 53.7669,-82.5442 69.8719,-72 92.6478,-72 108.753,-82.5442"/>
<text text-anchor="middle" x="81.2598" y="-87.8" font-family="Times New Roman,serif" font-size="9.00">selector</text>
</g>
<!-- battery_check -->
<g id="node2" class="node"><title>battery_check</title>
<ellipse fill="gray" stroke="black" cx="39.2598" cy="-18" rx="39.0211" ry="18"/>
<text text-anchor="middle" x="39.2598" y="-15.8" font-family="Times New Roman,serif" font-size="9.00">battery_check</text>
</g>
<!-- selector&#45;&gt;battery_check -->
<g id="edge1" class="edge"><title>selector&#45;&gt;battery_check</title>
<path fill="none" stroke="black" d="M70.8778,-71.6966C65.9223,-63.4374 59.8962,-53.394 54.4395,-44.2994"/>
<polygon fill="black" stroke="black" points="57.3794,-42.3965 49.2332,-35.6223 51.377,-45.998 57.3794,-42.3965"/>
</g>
<!-- charging -->
<g id="node3" class="node"><title>charging</title>
<ellipse fill="gray" stroke="black" cx="123.26" cy="-18" rx="27" ry="18"/>
<text text-anchor="middle" x="123.26" y="-15.8" font-family="Times New Roman,serif" font-size="9.00">charging</text>
</g>
<!-- selector&#45;&gt;charging -->
<g id="edge2" class="edge"><title>selector&#45;&gt;charging</title>
<path fill="none" stroke="black" d="M91.6418,-71.6966C96.6702,-63.316 102.801,-53.0983 108.321,-43.8988"/>
<polygon fill="black" stroke="black" points="111.429,-45.5203 113.573,-35.1446 105.427,-41.9187 111.429,-45.5203"/>
</g>
</g>
</svg>
