<?xml version="1.0" encoding="UTF-8" standalone="no"?>
<!DOCTYPE svg PUBLIC "-//W3C//DTD SVG 1.1//EN"
 "http://www.w3.org/Graphics/SVG/1.1/DTD/svg11.dtd">
<!-- Generated by graphviz version 2.38.0 (20140413.2041)
 -->
<!-- Title: pastafarianism Pages: 1 -->
<svg width="175pt" height="188pt"
 viewBox="0.00 0.00 175.49 188.00" xmlns="http://www.w3.org/2000/svg" xmlns:xlink="http://www.w3.org/1999/xlink">
<g id="graph0" class="graph" transform="scale(1 1) rotate(0) translate(4 184)">
<title>pastafarianism</title>
<polygon fill="white" stroke="none" points="-4,4 -4,-184 171.489,-184 171.489,4 -4,4"/>
<!-- sequence -->
<g id="node1" class="node"><title>sequence</title>
<polygon fill="orange" stroke="black" points="108.995,-180 54.9948,-180 54.9948,-144 108.995,-144 108.995,-180"/>
<text text-anchor="middle" x="81.9948" y="-159.8" font-family="Times New Roman,serif" font-size="9.00">sequence</text>
</g>
<!-- selectorIndex -->
<g id="node2" class="node"><title>selectorIndex</title>
<polygon fill="cyan" stroke="black" points="79.9845,-82.5442 79.9845,-97.4558 56.5591,-108 23.4306,-108 0.00515593,-97.4558 0.00515593,-82.5442 23.4306,-72 56.5591,-72 79.9845,-82.5442"/>
<text text-anchor="middle" x="39.9948" y="-87.8" font-family="Times New Roman,serif" font-size="9.00">selectorIndex</text>
</g>
<!-- sequence&#45;&gt;selectorIndex -->
<g id="edge1" class="edge"><title>sequence&#45;&gt;selectorIndex</title>
<path fill="none" stroke="black" d="M71.6128,-143.697C66.7302,-135.559 60.8083,-125.689 55.4156,-116.701"/>
<polygon fill="black" stroke="black" points="58.4037,-114.879 50.2574,-108.104 52.4012,-118.48 58.4037,-114.879"/>
</g>
<!-- sequence* -->
<g id="node3" class="node"><title>sequence*</title>
<polygon fill="orange" stroke="black" points="151.995,-108 97.9948,-108 97.9948,-72 151.995,-72 151.995,-108"/>
<text text-anchor="middle" x="124.995" y="-87.8" font-family="Times New Roman,serif" font-size="9.00">sequence*</text>
</g>
<!-- sequence&#45;&gt;sequence* -->
<g id="edge2" class="edge"><title>sequence&#45;&gt;sequence*</title>
<path fill="none" stroke="black" d="M92.6241,-143.697C97.623,-135.559 103.686,-125.689 109.207,-116.701"/>
<polygon fill="black" stroke="black" points="112.236,-118.457 114.488,-108.104 106.271,-114.793 112.236,-118.457"/>
</g>
<!-- selectorIndex* -->
<g id="node4" class="node"><title>selectorIndex*</title>
<polygon fill="cyan" stroke="black" points="167.484,-10.5442 167.484,-25.4558 142.594,-36 107.395,-36 82.5058,-25.4558 82.5058,-10.5442 107.395,-3.55271e-015 142.594,-0 167.484,-10.5442"/>
<text text-anchor="middle" x="124.995" y="-15.8" font-family="Times New Roman,serif" font-size="9.00">selectorIndex*</text>
</g>
<!-- sequence*&#45;&gt;selectorIndex* -->
<g id="edge3" class="edge"><title>sequence*&#45;&gt;selectorIndex*</title>
<path fill="none" stroke="black" d="M124.995,-71.6966C124.995,-63.9827 124.995,-54.7125 124.995,-46.1124"/>
<polygon fill="black" stroke="black" points="128.495,-46.1043 124.995,-36.1043 121.495,-46.1044 128.495,-46.1043"/>
</g>
</g>
</svg>
