<?xml version="1.0" encoding="UTF-8" standalone="no"?>
<!DOCTYPE svg PUBLIC "-//W3C//DTD SVG 1.1//EN"
 "http://www.w3.org/Graphics/SVG/1.1/DTD/svg11.dtd">
<!-- Generated by graphviz version 2.38.0 (20140413.2041)
 -->
<!-- Title: pastafarianism Pages: 1 -->
<svg width="104pt" height="280pt"
 viewBox="0.00 0.00 103.84 280.00" xmlns="http://www.w3.org/2000/svg" xmlns:xlink="http://www.w3.org/1999/xlink">
<g id="graph0" class="graph" transform="scale(1 1) rotate(0) translate(4 276)">
<title>pastafarianism</title>
<polygon fill="white" stroke="none" points="-4,4 -4,-276 99.8401,-276 99.8401,4 -4,4"/>
<!-- parallel -->
<g id="node1" class="node"><title>parallel</title>
<polygon fill="gold" stroke="black" points="92.581,-272 21.5355,-272 3.25916,-216 74.3047,-216 92.581,-272"/>
<text text-anchor="middle" x="47.9201" y="-246.8" font-family="Times New Roman,serif" font-size="9.00">parallel</text>
<text text-anchor="middle" x="47.9201" y="-236.8" font-family="Times New Roman,serif" font-size="9.00">type</text>
</g>
<!-- selector -->
<g id="node2" class="node"><title>selector</title>
<polygon fill="cyan" stroke="black" points="75.413,-154.544 75.413,-169.456 59.308,-180 36.5321,-180 20.4272,-169.456 20.4272,-154.544 36.5321,-144 59.308,-144 75.413,-154.544"/>
<text text-anchor="middle" x="47.9201" y="-159.8" font-family="Times New Roman,serif" font-size="9.00">selector</text>
</g>
<!-- parallel&#45;&gt;selector -->
<g id="edge1" class="edge"><title>parallel&#45;&gt;selector</title>
<path fill="none" stroke="black" d="M47.9201,-215.916C47.9201,-207.721 47.9201,-198.716 47.9201,-190.495"/>
<polygon fill="black" stroke="black" points="51.4202,-190.273 47.9201,-180.273 44.4202,-190.273 51.4202,-190.273"/>
</g>
<!-- sequence -->
<g id="node3" class="node"><title>sequence</title>
<polygon fill="orange" stroke="black" points="74.9201,-108 20.9201,-108 20.9201,-72 74.9201,-72 74.9201,-108"/>
<text text-anchor="middle" x="47.9201" y="-87.8" font-family="Times New Roman,serif" font-size="9.00">sequence</text>
</g>
<!-- selector&#45;&gt;sequence -->
<g id="edge2" class="edge"><title>selector&#45;&gt;sequence</title>
<path fill="none" stroke="black" d="M47.9201,-143.697C47.9201,-135.983 47.9201,-126.712 47.9201,-118.112"/>
<polygon fill="black" stroke="black" points="51.4202,-118.104 47.9201,-108.104 44.4202,-118.104 51.4202,-118.104"/>
</g>
<!-- package_detection -->
<g id="node4" class="node"><title>package_detection</title>
<ellipse fill="gray" stroke="black" cx="47.9201" cy="-18" rx="47.8403" ry="18"/>
<text text-anchor="middle" x="47.9201" y="-15.8" font-family="Times New Roman,serif" font-size="9.00">package_detection</text>
</g>
<!-- sequence&#45;&gt;package_detection -->
<g id="edge3" class="edge"><title>sequence&#45;&gt;package_detection</title>
<path fill="none" stroke="black" d="M47.9201,-71.6966C47.9201,-63.9827 47.9201,-54.7125 47.9201,-46.1124"/>
<polygon fill="black" stroke="black" points="51.4202,-46.1043 47.9201,-36.1043 44.4202,-46.1044 51.4202,-46.1043"/>
</g>
</g>
</svg>
