<?xml version="1.0" encoding="UTF-8" standalone="no"?>
<!DOCTYPE svg PUBLIC "-//W3C//DTD SVG 1.1//EN"
 "http://www.w3.org/Graphics/SVG/1.1/DTD/svg11.dtd">
<!-- Generated by graphviz version 6.0.1 (0)
 -->
<!-- Title: pastafarianism Pages: 1 -->
<svg width="170pt" height="136pt"
 viewBox="0.00 0.00 169.50 136.00" xmlns="http://www.w3.org/2000/svg" xmlns:xlink="http://www.w3.org/1999/xlink">
<g id="graph0" class="graph" transform="scale(1 1) rotate(0) translate(4 132)">
<title>pastafarianism</title>
<polygon fill="white" stroke="none" points="-4,4 -4,-132 165.5,-132 165.5,4 -4,4"/>
<!-- parallel -->
<g id="node1" class="node">
<title>parallel</title>
<polygon fill="gold" stroke="black" points="123.09,-128 53.75,-128 35.91,-72 105.25,-72 123.09,-128"/>
<text text-anchor="middle" x="79.5" y="-102.8" font-family="Times New Roman,serif" font-size="9.00">parallel</text>
<text text-anchor="middle" x="79.5" y="-92.8" font-family="Times New Roman,serif" font-size="9.00">type</text>
</g>
<!-- sequenceIndex -->
<g id="node2" class="node">
<title>sequenceIndex</title>
<polygon fill="orange" stroke="black" points="69,-36 0,-36 0,0 69,0 69,-36"/>
<text text-anchor="middle" x="34.5" y="-15.8" font-family="Times New Roman,serif" font-size="9.00">sequenceIndex</text>
</g>
<!-- parallel&#45;&gt;sequenceIndex -->
<g id="edge1" class="edge">
<title>parallel&#45;&gt;sequenceIndex</title>
<path fill="none" stroke="black" d="M64.27,-71.92C59.4,-63.26 54.02,-53.7 49.19,-45.12"/>
<polygon fill="black" stroke="black" points="52.17,-43.27 44.22,-36.27 46.07,-46.7 52.17,-43.27"/>
</g>
<!-- sequenceIndex* -->
<g id="node3" class="node">
<title>sequenceIndex*</title>
<polygon fill="orange" stroke="black" points="161.5,-36 87.5,-36 87.5,0 161.5,0 161.5,-36"/>
<text text-anchor="middle" x="124.5" y="-15.8" font-family="Times New Roman,serif" font-size="9.00">sequenceIndex*</text>
</g>
<!-- parallel&#45;&gt;sequenceIndex* -->
<g id="edge2" class="edge">
<title>parallel&#45;&gt;sequenceIndex*</title>
<path fill="none" stroke="black" d="M94.73,-71.92C99.6,-63.26 104.98,-53.7 109.81,-45.12"/>
<polygon fill="black" stroke="black" points="112.93,-46.7 114.78,-36.27 106.83,-43.27 112.93,-46.7"/>
</g>
</g>
</svg>
