<?xml version="1.0" encoding="UTF-8" standalone="no"?>
<!DOCTYPE svg PUBLIC "-//W3C//DTD SVG 1.1//EN"
 "http://www.w3.org/Graphics/SVG/1.1/DTD/svg11.dtd">
<!-- Generated by graphviz version 2.38.0 (20140413.2041)
 -->
<!-- Title: pastafarianism Pages: 1 -->
<svg width="176pt" height="116pt"
 viewBox="0.00 0.00 175.92 116.00" xmlns="http://www.w3.org/2000/svg" xmlns:xlink="http://www.w3.org/1999/xlink">
<g id="graph0" class="graph" transform="scale(1 1) rotate(0) translate(4 112)">
<title>pastafarianism</title>
<polygon fill="white" stroke="none" points="-4,4 -4,-112 171.92,-112 171.92,4 -4,4"/>
<!-- sequence -->
<g id="node1" class="node"><title>sequence</title>
<polygon fill="orange" stroke="black" points="120.92,-108 66.9201,-108 66.9201,-72 120.92,-72 120.92,-108"/>
<text text-anchor="middle" x="93.9201" y="-87.8" font-family="Times New Roman,serif" font-size="9.00">sequence</text>
</g>
<!-- obstacle_detection -->
<g id="node2" class="node"><title>obstacle_detection</title>
<ellipse fill="gray" stroke="black" cx="47.9201" cy="-18" rx="47.8403" ry="18"/>
<text text-anchor="middle" x="47.9201" y="-15.8" font-family="Times New Roman,serif" font-size="9.00">obstacle_detection</text>
</g>
<!-- sequence&#45;&gt;obstacle_detection -->
<g id="edge1" class="edge"><title>sequence&#45;&gt;obstacle_detection</title>
<path fill="none" stroke="black" d="M82.5493,-71.6966C77.0653,-63.3514 70.3842,-53.1846 64.3589,-44.0155"/>
<polygon fill="black" stroke="black" points="67.2601,-42.0572 58.8433,-35.6223 61.4101,-45.9015 67.2601,-42.0572"/>
</g>
<!-- bypass -->
<g id="node3" class="node"><title>bypass</title>
<ellipse fill="gray" stroke="black" cx="140.92" cy="-18" rx="27" ry="18"/>
<text text-anchor="middle" x="140.92" y="-15.8" font-family="Times New Roman,serif" font-size="9.00">bypass</text>
</g>
<!-- sequence&#45;&gt;bypass -->
<g id="edge2" class="edge"><title>sequence&#45;&gt;bypass</title>
<path fill="none" stroke="black" d="M105.538,-71.6966C111.306,-63.1059 118.37,-52.585 124.665,-43.2092"/>
<polygon fill="black" stroke="black" points="127.729,-44.9245 130.398,-34.6712 121.918,-41.0224 127.729,-44.9245"/>
</g>
</g>
</svg>
