<?xml version="1.0" encoding="UTF-8" standalone="no"?>
<!DOCTYPE svg PUBLIC "-//W3C//DTD SVG 1.1//EN"
 "http://www.w3.org/Graphics/SVG/1.1/DTD/svg11.dtd">
<!-- Generated by graphviz version 2.38.0 (20140413.2041)
 -->
<!-- Title: pastafarianism Pages: 1 -->
<svg width="444pt" height="352pt"
 viewBox="0.00 0.00 444.26 352.00" xmlns="http://www.w3.org/2000/svg" xmlns:xlink="http://www.w3.org/1999/xlink">
<g id="graph0" class="graph" transform="scale(1 1) rotate(0) translate(4 348)">
<title>pastafarianism</title>
<polygon fill="white" stroke="none" points="-4,4 -4,-348 440.26,-348 440.26,4 -4,4"/>
<!-- sequence -->
<g id="node1" class="node"><title>sequence</title>
<polygon fill="orange" stroke="black" points="247.26,-344 193.26,-344 193.26,-308 247.26,-308 247.26,-344"/>
<text text-anchor="middle" x="220.26" y="-323.8" font-family="Times New Roman,serif" font-size="9.00">sequence</text>
</g>
<!-- selector -->
<g id="node2" class="node"><title>selector</title>
<polygon fill="cyan" stroke="black" points="108.753,-236.544 108.753,-251.456 92.6478,-262 69.8719,-262 53.7669,-251.456 53.7669,-236.544 69.8719,-226 92.6478,-226 108.753,-236.544"/>
<text text-anchor="middle" x="81.2598" y="-241.8" font-family="Times New Roman,serif" font-size="9.00">selector</text>
</g>
<!-- sequence&#45;&gt;selector -->
<g id="edge1" class="edge"><title>sequence&#45;&gt;selector</title>
<path fill="none" stroke="black" d="M192.899,-312.476C171.737,-302.422 141.976,-287.474 117.26,-272 113.61,-269.715 109.862,-267.162 106.229,-264.562"/>
<polygon fill="black" stroke="black" points="108.177,-261.65 98.0563,-258.516 104.014,-267.278 108.177,-261.65"/>
</g>
<!-- obstacle_detection -->
<g id="node5" class="node"><title>obstacle_detection</title>
<ellipse fill="gray" stroke="black" cx="174.26" cy="-244" rx="47.8403" ry="18"/>
<text text-anchor="middle" x="174.26" y="-241.8" font-family="Times New Roman,serif" font-size="9.00">obstacle_detection</text>
</g>
<!-- sequence&#45;&gt;obstacle_detection -->
<g id="edge4" class="edge"><title>sequence&#45;&gt;obstacle_detection</title>
<path fill="none" stroke="black" d="M210.279,-307.641C204.046,-296.802 195.911,-282.655 188.95,-270.548"/>
<polygon fill="black" stroke="black" points="191.925,-268.701 183.906,-261.777 185.857,-272.19 191.925,-268.701"/>
</g>
<!-- grab -->
<g id="node6" class="node"><title>grab</title>
<ellipse fill="gray" stroke="black" cx="267.26" cy="-244" rx="27" ry="18"/>
<text text-anchor="middle" x="267.26" y="-241.8" font-family="Times New Roman,serif" font-size="9.00">grab</text>
</g>
<!-- sequence&#45;&gt;grab -->
<g id="edge5" class="edge"><title>sequence&#45;&gt;grab</title>
<path fill="none" stroke="black" d="M230.458,-307.641C236.955,-296.582 245.475,-282.08 252.681,-269.815"/>
<polygon fill="black" stroke="black" points="255.832,-271.361 257.88,-260.965 249.797,-267.815 255.832,-271.361"/>
</g>
<!-- parallel -->
<g id="node7" class="node"><title>parallel</title>
<polygon fill="gold" stroke="black" points="401.921,-272 330.875,-272 312.599,-216 383.644,-216 401.921,-272"/>
<text text-anchor="middle" x="357.26" y="-246.8" font-family="Times New Roman,serif" font-size="9.00">parallel</text>
<text text-anchor="middle" x="357.26" y="-236.8" font-family="Times New Roman,serif" font-size="9.00">type</text>
</g>
<!-- sequence&#45;&gt;parallel -->
<g id="edge6" class="edge"><title>sequence&#45;&gt;parallel</title>
<path fill="none" stroke="black" d="M247.327,-309.195C267.704,-297.295 295.917,-280.821 318.659,-267.541"/>
<polygon fill="black" stroke="black" points="320.525,-270.504 327.396,-262.439 316.995,-264.459 320.525,-270.504"/>
</g>
<!-- battery_check -->
<g id="node3" class="node"><title>battery_check</title>
<ellipse fill="gray" stroke="black" cx="39.2598" cy="-162" rx="39.0211" ry="18"/>
<text text-anchor="middle" x="39.2598" y="-159.8" font-family="Times New Roman,serif" font-size="9.00">battery_check</text>
</g>
<!-- selector&#45;&gt;battery_check -->
<g id="edge2" class="edge"><title>selector&#45;&gt;battery_check</title>
<path fill="none" stroke="black" d="M72.1464,-225.641C66.5115,-214.908 59.174,-200.932 52.8599,-188.905"/>
<polygon fill="black" stroke="black" points="55.8149,-187.004 48.0676,-179.777 49.6171,-190.258 55.8149,-187.004"/>
</g>
<!-- charging -->
<g id="node4" class="node"><title>charging</title>
<ellipse fill="gray" stroke="black" cx="123.26" cy="-162" rx="27" ry="18"/>
<text text-anchor="middle" x="123.26" y="-159.8" font-family="Times New Roman,serif" font-size="9.00">charging</text>
</g>
<!-- selector&#45;&gt;charging -->
<g id="edge3" class="edge"><title>selector&#45;&gt;charging</title>
<path fill="none" stroke="black" d="M90.3732,-225.641C96.0843,-214.763 103.544,-200.553 109.915,-188.418"/>
<polygon fill="black" stroke="black" points="113.187,-189.715 114.737,-179.234 106.989,-186.461 113.187,-189.715"/>
</g>
<!-- selector* -->
<g id="node8" class="node"><title>selector*</title>
<polygon fill="cyan" stroke="black" points="350.002,-154.544 350.002,-169.456 331.994,-180 306.526,-180 288.517,-169.456 288.517,-154.544 306.526,-144 331.994,-144 350.002,-154.544"/>
<text text-anchor="middle" x="319.26" y="-159.8" font-family="Times New Roman,serif" font-size="9.00">selector*</text>
</g>
<!-- parallel&#45;&gt;selector* -->
<g id="edge7" class="edge"><title>parallel&#45;&gt;selector*</title>
<path fill="none" stroke="black" d="M344.395,-215.916C340.327,-207.353 335.84,-197.905 331.796,-189.391"/>
<polygon fill="black" stroke="black" points="334.916,-187.804 327.464,-180.273 328.593,-190.807 334.916,-187.804"/>
</g>
<!-- scanning -->
<g id="node13" class="node"><title>scanning</title>
<ellipse fill="gray" stroke="black" cx="395.26" cy="-162" rx="27.2716" ry="18"/>
<text text-anchor="middle" x="395.26" y="-159.8" font-family="Times New Roman,serif" font-size="9.00">scanning</text>
</g>
<!-- parallel&#45;&gt;scanning -->
<g id="edge12" class="edge"><title>parallel&#45;&gt;scanning</title>
<path fill="none" stroke="black" d="M370.125,-215.916C374.317,-207.089 378.956,-197.323 383.096,-188.608"/>
<polygon fill="black" stroke="black" points="386.378,-189.856 387.507,-179.322 380.055,-186.853 386.378,-189.856"/>
</g>
<!-- move_forward -->
<g id="node9" class="node"><title>move_forward</title>
<ellipse fill="gray" stroke="black" cx="276.26" cy="-90" rx="39.675" ry="18"/>
<text text-anchor="middle" x="276.26" y="-87.8" font-family="Times New Roman,serif" font-size="9.00">move_forward</text>
</g>
<!-- selector*&#45;&gt;move_forward -->
<g id="edge8" class="edge"><title>selector*&#45;&gt;move_forward</title>
<path fill="none" stroke="black" d="M308.631,-143.697C303.557,-135.437 297.388,-125.394 291.801,-116.299"/>
<polygon fill="black" stroke="black" points="294.687,-114.311 286.471,-107.622 288.723,-117.975 294.687,-114.311"/>
</g>
<!-- sequence* -->
<g id="node10" class="node"><title>sequence*</title>
<polygon fill="orange" stroke="black" points="388.26,-108 334.26,-108 334.26,-72 388.26,-72 388.26,-108"/>
<text text-anchor="middle" x="361.26" y="-87.8" font-family="Times New Roman,serif" font-size="9.00">sequence*</text>
</g>
<!-- selector*&#45;&gt;sequence* -->
<g id="edge9" class="edge"><title>selector*&#45;&gt;sequence*</title>
<path fill="none" stroke="black" d="M329.642,-143.697C334.524,-135.559 340.446,-125.689 345.839,-116.701"/>
<polygon fill="black" stroke="black" points="348.853,-118.48 350.997,-108.104 342.851,-114.879 348.853,-118.48"/>
</g>
<!-- obstacle_detection* -->
<g id="node11" class="node"><title>obstacle_detection*</title>
<ellipse fill="gray" stroke="black" cx="313.26" cy="-18" rx="50.6144" ry="18"/>
<text text-anchor="middle" x="313.26" y="-15.8" font-family="Times New Roman,serif" font-size="9.00">obstacle_detection*</text>
</g>
<!-- sequence*&#45;&gt;obstacle_detection* -->
<g id="edge10" class="edge"><title>sequence*&#45;&gt;obstacle_detection*</title>
<path fill="none" stroke="black" d="M349.395,-71.6966C343.672,-63.3514 336.701,-53.1846 330.413,-44.0155"/>
<polygon fill="black" stroke="black" points="333.2,-41.8902 324.658,-35.6223 327.427,-45.849 333.2,-41.8902"/>
</g>
<!-- bypass -->
<g id="node12" class="node"><title>bypass</title>
<ellipse fill="gray" stroke="black" cx="409.26" cy="-18" rx="27" ry="18"/>
<text text-anchor="middle" x="409.26" y="-15.8" font-family="Times New Roman,serif" font-size="9.00">bypass</text>
</g>
<!-- sequence*&#45;&gt;bypass -->
<g id="edge11" class="edge"><title>sequence*&#45;&gt;bypass</title>
<path fill="none" stroke="black" d="M373.125,-71.6966C379.076,-63.0174 386.379,-52.3679 392.858,-42.9196"/>
<polygon fill="black" stroke="black" points="395.745,-44.8979 398.514,-34.6712 389.972,-40.9392 395.745,-44.8979"/>
</g>
</g>
</svg>
